<svg xmlns="http://www.w3.org/2000/svg" width="60" height="60" viewBox="0 0 60 60">
  <g id="_6" data-name="6" transform="translate(-92 -986)">
    <rect id="Rectangle_1763" data-name="Rectangle 1763" width="60" height="60" transform="translate(92 986)" fill="none"/>
    <g id="_5" data-name="5" transform="translate(77.654 948.598)">
      <path id="Path_1960" data-name="Path 1960" d="M143.225,302.1h-21.25c-1.612,0-1.919-.308-1.919-1.907V277.308a5.037,5.037,0,0,1,.025-.861,1.149,1.149,0,0,1,2.252-.123,8.6,8.6,0,0,1,.111,2.1v3.593c0,.984.1,1.034,1.034.677a6.541,6.541,0,0,0,2.732-2.018,1.2,1.2,0,0,1,1.513-.455,1.186,1.186,0,0,1,.308,1.969,8.3,8.3,0,0,1-4.7,3.027c-.7.16-.935.455-.911,1.157.049,1.686.025,3.384.012,5.082-.012.554.185.8.763.947a8.473,8.473,0,0,1,6.5,6.571.788.788,0,0,0,.9.726q12.661-.018,25.31,0c.566,0,.763-.234.886-.738a8.508,8.508,0,0,1,6.657-6.6c.517-.123.689-.332.677-.837q-.018-2.732,0-5.463a.71.71,0,0,0-.64-.812,8.479,8.479,0,0,1-6.706-6.632.881.881,0,0,0-1.021-.788c-3.827.025-7.653.012-11.48,0a5.9,5.9,0,0,1-1.317-.123,1.143,1.143,0,0,1,.2-2.239,6.666,6.666,0,0,1,.7-.012h20.856c1.452,0,1.71.271,1.71,1.747v23.12c0,1.427-.357,1.784-1.809,1.784Q153.924,302.1,143.225,302.1Zm20.893-21.619v-2.03c0-.369-.123-.615-.529-.615h-4.048c-.308,0-.455.135-.394.492a6.515,6.515,0,0,0,4.454,4.491c.394.074.529-.025.529-.406C164.106,281.787,164.118,281.135,164.118,280.483Zm0,16.734c0-.652-.025-1.3.012-1.956.025-.48-.172-.615-.6-.48a6.239,6.239,0,0,0-4.343,4.331c-.135.431.012.578.431.578,1.3,0,2.6-.012,3.9,0,.431,0,.615-.172.6-.6C164.106,298.459,164.118,297.832,164.118,297.216Zm-39.165,2.473c.628,0,1.255-.012,1.87,0,.455.012.615-.148.468-.615a6.179,6.179,0,0,0-4.208-4.257c-.418-.135-.64-.049-.64.443.012,1.255.012,2.5,0,3.753,0,.5.209.7.714.689C123.747,299.677,124.35,299.69,124.953,299.69Z" transform="translate(-92.698 -207.01)"/>
      <path id="Path_1961" data-name="Path 1961" d="M53.96,59.655c0-1.563.012-3.125,0-4.688a3.658,3.658,0,0,0-2.682-3.617c-2.768-.824-5.562-1.575-8.342-2.362C41.8,48.667,40.7,48.3,39.564,48a30.658,30.658,0,0,1-10.545-5.451,2.968,2.968,0,0,0-2.892-.48,11.825,11.825,0,0,0-5.635,3.63c-2.092,2.461-3.642,5.2-3.667,8.576,0,.615.16.947.812,1.07a11.955,11.955,0,0,1,2.35.849,6.255,6.255,0,0,1,3.642,3.519A6.63,6.63,0,0,0,28.5,63.8c4.946,1.243,8.564,4.356,11.357,8.515.861,1.28,1.661,2.584,2.547,3.839.911,1.292,2.239,1.144,2.867-.332a6.687,6.687,0,0,0-.172-5.389,18.867,18.867,0,0,0-2.35-3.679,43.105,43.105,0,0,1-3-4.282,9.832,9.832,0,0,1-.5-8.367,1.229,1.229,0,0,1,1.636-.911c.664.258.886.923.566,1.772A8.594,8.594,0,0,0,41,56.616c-.086.529.074.591.541.431a16.845,16.845,0,0,1,4.343-.9,2.59,2.59,0,0,1,.923.037,1.122,1.122,0,0,1,.628,1.846,1.231,1.231,0,0,0-.246,1.206l.664,3.211c.172.886-.148,1.513-.861,1.661a1.26,1.26,0,0,1-1.5-1.132c-.258-1.169-.5-2.338-.726-3.519-.111-.578-.406-.738-.935-.591-.726.209-1.44.455-2.166.664-.5.148-.591.406-.381.861a16.68,16.68,0,0,0,1.661,2.732c1.157,1.636,2.436,3.187,3.494,4.9a9.7,9.7,0,0,1,1.28,7.863,4.606,4.606,0,0,1-2.547,3.187,3.452,3.452,0,0,1-4.208-.824,23.842,23.842,0,0,1-2.35-3.4,22.1,22.1,0,0,0-5.955-6.546,14.341,14.341,0,0,0-4.873-2.227,9,9,0,0,1-6.62-5.734,3.014,3.014,0,0,0-1.612-1.686,11.43,11.43,0,0,0-3.839-1.243c-.775-.062-1.021-.64-1.157-1.28a10.237,10.237,0,0,1,.283-5.242c1.723-5.4,5.008-9.351,10.557-11.148a9.246,9.246,0,0,1,1.993-.332,2.9,2.9,0,0,1,2.055.578c1.132.824,2.326,1.575,3.47,2.4,3.568,2.547,7.776,3.445,11.861,4.639,2.2.64,4.417,1.218,6.607,1.87,3.15.935,4.823,2.99,4.885,6.251.062,3.224-.049,6.46-.1,9.684a1.114,1.114,0,0,1-1.157,1.194c-.689,0-1.1-.443-1.107-1.23-.012-1.723,0-3.433,0-5.156A.093.093,0,0,0,53.96,59.655Z" transform="translate(0)"/>
      <path id="Path_1962" data-name="Path 1962" d="M262.968,335.488a5.8,5.8,0,0,1-4.639-2.178A8.5,8.5,0,0,1,256.4,328.7a1.24,1.24,0,0,1,.972-1.464,1.2,1.2,0,0,1,1.4,1.132,6.2,6.2,0,0,0,1.415,3.408,3.333,3.333,0,0,0,5.291.074,6.653,6.653,0,0,0-.049-8.4,3.429,3.429,0,0,0-1.636-1.021.9.9,0,0,1-.726-1.009c-.037-1.723.074-1.809,1.673-1.194a7.019,7.019,0,0,1,4.38,5.574,8.328,8.328,0,0,1-2.35,8.084A5.387,5.387,0,0,1,262.968,335.488Z" transform="translate(-212.257 -245.958)"/>
    </g>
  </g>
</svg>
