<svg xmlns="http://www.w3.org/2000/svg" fill="white" width="60" height="60" viewBox="0 0 60 60">
  <g id="_3" data-name="3" transform="translate(-92 -986)">
    <rect id="Rectangle_1763" data-name="Rectangle 1763" width="60" height="60" transform="translate(92 986)" fill="none"/>
    <g id="_3-2" data-name="3" transform="translate(68.325 979.208)">
      <path id="Path_1952" data-name="Path 1952" d="M87.269,110.127A22.964,22.964,0,1,1,110.191,87.1,22.924,22.924,0,0,1,87.269,110.127Zm-.048-2.478a20.5,20.5,0,1,0-20.48-20.516A20.439,20.439,0,0,0,87.221,107.649Z" transform="translate(-34.001 -50.536)"/>
      <path id="Path_1953" data-name="Path 1953" d="M28.18,20.331c.958-1.245,1.712-2.346,2.609-3.352a29.827,29.827,0,0,1,18.96-9.995,29.244,29.244,0,0,1,3.064-.192c1.029-.024,1.58.407,1.6,1.185.024.814-.527,1.293-1.592,1.3A27.346,27.346,0,0,0,28.359,25.214c-.527,1.125-1.041,1.52-1.736,1.353-.67-.168-.946-.73-.946-1.927V15.663c0-.239-.012-.491.012-.73a1.275,1.275,0,0,1,1.221-1.269,1.258,1.258,0,0,1,1.245,1.329C28.2,16.692,28.18,18.392,28.18,20.331Z" transform="translate(0 0)"/>
      <path id="Path_1954" data-name="Path 1954" d="M272.238,346.008c-1.017,1.173-1.9,2.382-2.921,3.483a29.711,29.711,0,0,1-17.823,9.528,24.938,24.938,0,0,1-3.782.323c-1.149,0-1.712-.419-1.712-1.245s.575-1.233,1.724-1.257A27.3,27.3,0,0,0,271.855,341.3c.18-.359.335-.742.527-1.089a1.173,1.173,0,0,1,1.281-.658,1.194,1.194,0,0,1,1.005,1.029,4.513,4.513,0,0,1,.048.8v9.145c0,.168,0,.323-.012.491-.048.874-.527,1.436-1.221,1.448-.742.012-1.257-.563-1.257-1.472C272.226,349.324,272.238,347.66,272.238,346.008Z" transform="translate(-193.953 -292.917)"/>
      <path id="Path_1955" data-name="Path 1955" d="M159.512,160.177c0-1.855.012-3.723,0-5.578a1.674,1.674,0,0,1,.91-1.592c3.184-1.831,6.368-3.651,9.516-5.506a2,2,0,0,1,2.25.012q4.7,2.765,9.456,5.47a1.728,1.728,0,0,1,.946,1.652c-.012,3.7-.012,7.385,0,11.084a1.728,1.728,0,0,1-.946,1.652q-4.776,2.729-9.528,5.506a1.931,1.931,0,0,1-2.179-.024q-4.74-2.783-9.528-5.506a1.683,1.683,0,0,1-.91-1.592C159.524,163.9,159.512,162.032,159.512,160.177Zm2.5.814c0,1.185.024,2.37-.012,3.555a1.247,1.247,0,0,0,.718,1.293c2.143,1.2,4.261,2.43,6.368,3.675.6.359.778.251.766-.443q-.036-3.717,0-7.433a1.048,1.048,0,0,0-.563-1.053q-3.3-1.885-6.583-3.794c-.527-.311-.706-.191-.706.407C162.026,158.453,162.014,159.722,162.014,160.991Zm10.234,4.273c0,1.293.012,2.585-.012,3.878-.012.61.168.718.694.407q3.286-1.921,6.571-3.806a.992.992,0,0,0,.575-.97c-.012-2.538-.012-5.063,0-7.6,0-.61-.18-.718-.706-.407q-3.286,1.921-6.583,3.794a1.03,1.03,0,0,0-.563,1.053C172.26,162.846,172.248,164.055,172.248,165.264Zm-1.185-15.5a3.49,3.49,0,0,0-.371.168l-6.93,3.986c-.575.323-.239.5.1.694,2.19,1.257,4.393,2.514,6.571,3.794a1.078,1.078,0,0,0,1.257-.024c2.155-1.269,4.321-2.526,6.512-3.747.67-.371.431-.551-.048-.826-2.179-1.245-4.333-2.5-6.512-3.747C171.458,149.955,171.266,149.871,171.063,149.763Z" transform="translate(-117.807 -123.568)"/>
    </g>
  </g>
</svg>
