<svg xmlns="http://www.w3.org/2000/svg" fill="white" width="60" height="60" viewBox="0 0 60 60">
  <g id="_4" data-name="4" transform="translate(-92 -986)">
    <rect id="Rectangle_1763" data-name="Rectangle 1763" width="60" height="60" transform="translate(92 986)" fill="none"/>
    <g id="_4-2" data-name="4" transform="translate(55.2 974.38)">
      <path id="Path_1956" data-name="Path 1956" d="M66.931,160.281H42.6c-1.461,0-1.8-.333-1.8-1.784V132.184c0-1.439.341-1.784,1.8-1.784h48.8c1.461,0,1.8.333,1.8,1.772v26.313c0,1.439-.341,1.784-1.8,1.784C83.247,160.292,75.089,160.281,66.931,160.281ZM67,157.974h14.32c.511,0,.816-.071.95-.678a9.621,9.621,0,0,1,7.817-7.669c.548-.119.755-.345.743-.9-.024-2.2-.037-4.411,0-6.611.012-.606-.244-.809-.816-.939a9.531,9.531,0,0,1-7.7-7.515c-.17-.737-.451-.951-1.205-.951-5.589.024-11.19.012-16.779.012H52.709c-.56,0-.84.107-.986.749a9.489,9.489,0,0,1-7.744,7.7c-.633.143-.828.4-.816,1.011.037,2.128.049,4.257,0,6.385-.012.69.231.927.9,1.082a9.555,9.555,0,0,1,7.61,7.42c.17.7.438.916,1.169.9C57.567,157.962,62.279,157.974,67,157.974Zm23.829-22.092c0-.8-.024-1.605.012-2.4.024-.535-.17-.773-.743-.761-1.583.024-3.178.024-4.761,0-.633-.012-.828.226-.658.82a7.433,7.433,0,0,0,5.479,5.351c.56.155.682-.059.682-.547C90.821,137.534,90.833,136.714,90.833,135.881Zm-47.659.024c0,.832.012,1.653,0,2.485-.012.452.11.618.633.511a7.583,7.583,0,0,0,5.552-5.41c.11-.511-.024-.761-.6-.749q-2.466.018-4.931,0c-.511,0-.67.226-.658.69C43.2,134.241,43.174,135.073,43.174,135.905Zm0,18.977c0,.8.012,1.605,0,2.4-.012.452.134.7.645.7,1.668-.012,3.324-.012,4.992,0,.548,0,.658-.273.524-.725a7.453,7.453,0,0,0-5.54-5.3c-.451-.119-.621.024-.621.464Q43.193,153.634,43.174,154.882Zm47.659.048c0-.82-.012-1.653,0-2.473,0-.452-.134-.654-.645-.511a7.467,7.467,0,0,0-5.5,5.244c-.17.559.012.785.609.785,1.619-.012,3.227-.012,4.846,0,.536.012.718-.214.706-.725C90.809,156.488,90.833,155.7,90.833,154.93Z" transform="translate(0 -103.958)"/>
      <path id="Path_1957" data-name="Path 1957" d="M156.133,422.275a37.1,37.1,0,0,1-6.262,1.56,24.665,24.665,0,0,1-17.626-4.218,1.27,1.27,0,0,1-.514-1.747,1.158,1.158,0,0,1,1.792-.237,22.684,22.684,0,0,0,25.035.524c.155-.1.3-.187.454-.287a1.128,1.128,0,0,1,1.589.087,1.267,1.267,0,0,1,.012,1.71c-1.6,2.458-3.179,4.929-4.78,7.375-.49.749-1.171.923-1.733.5s-.621-1.123-.143-1.884C154.663,424.522,155.4,423.4,156.133,422.275Z" transform="translate(-79.434 -356.557)"/>
      <path id="Path_1958" data-name="Path 1958" d="M139.333,17.283a27.986,27.986,0,0,1,7.385-1.9,24.413,24.413,0,0,1,12.882,2.2,23.628,23.628,0,0,1,3.645,2.071c.765.537.992,1.223.621,1.847s-1.087.7-1.864.175a22.546,22.546,0,0,0-25.035-.424c-.167.112-.347.225-.514.324a1.058,1.058,0,0,1-1.446-.212,1.153,1.153,0,0,1-.108-1.51q1.4-2.19,2.82-4.38c.633-.986,1.267-1.959,1.912-2.932.586-.9,1.255-1.148,1.864-.711s.609,1.16.024,2.084C140.839,14.974,140.146,16.035,139.333,17.283Z" transform="translate(-82.156)"/>
      <path id="Path_1959" data-name="Path 1959" d="M208.717,193.182a9.8,9.8,0,0,1-2.571,6.526,7.21,7.21,0,0,1-10.906-.225,9.959,9.959,0,0,1,.062-12.815,7.2,7.2,0,0,1,11.056.062A10.235,10.235,0,0,1,208.717,193.182Zm-13.389-.661a7.822,7.822,0,0,0,2.134,5.827,4.811,4.811,0,0,0,6.688.025,7.525,7.525,0,0,0-.037-10.557,4.678,4.678,0,0,0-5.328-.836A6.439,6.439,0,0,0,195.328,192.521Z" transform="translate(-133.803 -151.706)"/>
    </g>
  </g>
</svg>
