<svg xmlns="http://www.w3.org/2000/svg" fill="white" width="60.542" height="60" viewBox="0 0 60.542 60">
  <g id="_5" data-name="5" transform="translate(-92 -986)">
    <rect id="Rectangle_1763" data-name="Rectangle 1763" width="60" height="60" transform="translate(92 986)" fill="none"/>
    <g id="_6" data-name="6" transform="translate(86.344 953.128)">
      <path id="Path_1963" data-name="Path 1963" d="M83.331,78.116H62.585c-.24,0-.48.012-.732,0a1.234,1.234,0,1,1-.072-2.458c1.079-.048,2.147-.024,3.226-.036.18,0,.408.072.516-.12s-.1-.336-.2-.48a23,23,0,0,1-5.133-12.076A23.352,23.352,0,0,1,80.429,37.067a23.225,23.225,0,0,1,25.711,18.2,22.9,22.9,0,0,1-4.653,19.655c-.132.18-.444.324-.288.6.12.192.4.108.6.108.947.012,1.883-.012,2.83.012,1.031.024,1.631.528,1.607,1.307-.036.756-.588,1.175-1.619,1.175C97.541,78.116,90.43,78.116,83.331,78.116Zm.072-2.494c4.413,0,8.826-.012,13.239.012a1.884,1.884,0,0,0,1.487-.624,20.331,20.331,0,0,0,5.8-18.348,20.66,20.66,0,0,0-24.2-16.957C71.555,41.24,65.954,46.1,63.508,54.048c-2.41,7.819-.576,14.87,5.049,20.878a2.14,2.14,0,0,0,1.691.72C74.637,75.609,79.014,75.621,83.4,75.621Z" transform="translate(-46.966 0)" stroke="#000" stroke-width="0.1"/>
      <path id="Path_1964" data-name="Path 1964" d="M36.449,290.677H10.127c-1.859,0-3.022-.827-3.382-2.386a4.718,4.718,0,0,1-.084-.72c0-6.38-.012-12.759,0-19.139A2.919,2.919,0,0,1,9.467,265.4a1.124,1.124,0,0,1,1.283.959,1.108,1.108,0,0,1-.887,1.4.859.859,0,0,0-.732.983q.018,9.246,0,18.492c0,.755.348.971,1.043.959,3.31-.024,6.62-.012,9.929-.012h42.14c1.4,0,1.4-.012,1.4-1.379q0-8.832.012-17.676c0-.7-.036-1.247-.911-1.427-.6-.12-.8-.684-.72-1.283a1.1,1.1,0,0,1,1.079-1.007,2.894,2.894,0,0,1,3.022,2.89c.036,1.619.012,3.226.012,4.845v14.043c0,2.3-1.175,3.478-3.49,3.478Q49.574,290.683,36.449,290.677Z" transform="translate(0 -201.121)" stroke="#000" stroke-width="0.1"/>
      <path id="Path_1965" data-name="Path 1965" d="M171.334,161.425a1.437,1.437,0,0,1-1.055-.528c-3.25-3.25-6.512-6.5-9.749-9.761a1.289,1.289,0,0,1-.012-2.111q4.857-4.893,9.761-9.761a1.311,1.311,0,0,1,2.171.024q4.857,4.839,9.7,9.7a1.317,1.317,0,0,1,.012,2.171q-4.839,4.857-9.7,9.7A1.541,1.541,0,0,1,171.334,161.425Zm8.3-11.44a3.273,3.273,0,0,0-.336-.4c-2.494-2.494-4.989-4.977-7.471-7.483-.336-.336-.576-.384-.923-.024q-3.741,3.777-7.531,7.531c-.348.348-.336.588.012.923q3.777,3.741,7.531,7.531c.312.312.528.36.863.024,2.518-2.542,5.049-5.061,7.579-7.591A.707.707,0,0,0,179.633,149.984Z" transform="translate(-134.933 -89.617)" stroke="#000" stroke-width="0.1"/>
    </g>
  </g>
</svg>
