<svg id="Layer_1" fill="white" data-name="Layer 1" xmlns="http://www.w3.org/2000/svg" viewBox="0 0 500 500"><path d="M270.69,283.81c-5.05,6.17-8.69,11.05-12.78,15.51-5.76,6.27-11.38,12.83-18,18.12a28.31,28.31,0,0,1-14.66,5.74c-2.72.22-6.52-3.71-8.55-6.66-1.72-2.5-1.59-6.27-2.5-10.54-1.62,2.41-2.87,4.44-4.29,6.33-11.94,15.86-23.79,31.79-36,47.47-2.4,3.1-5.85,5.57-9.2,7.72-13.64,8.74-27.8,4.62-31.93-11.07-2.93-11.12-3.29-23.45-2.16-35,1.35-13.77,5.68-27.23,8.43-40.88C145.68,248,157,217,171.4,187.23c8.8-18.17,20.36-35.09,31.61-51.95,7-10.55,13.54-12.75,20.51-9.88,7.79,3.19,13.42,13.67,12.12,23.71-.75,5.83-1.41,12.06-4,17.17-8,16-16.12,32.05-25.63,47.18-12.83,20.41-28,39.39-40.17,60.16-5.9,10.07-8.24,22.61-10.4,34.36-2.28,12.36-2.79,25.09-3.24,37.69-.12,3.48,2.35,9.74,4.31,10,3.78.54,9.35-1.1,11.85-3.9,8.8-9.87,17.49-20.06,24.59-31.17,11.17-17.49,21-35.83,31.44-53.79,4.14-7.15,8.08-14.43,12.66-21.29,2-3,5.13-6.8,8.17-7.23,4.42-.61,9.46,1,13.67,2.86.92.42.28,6.48-1,9.31-6.37,13.86-13.55,27.36-19.67,41.33-1.87,4.27-1.29,9.61-1.83,14.46,4.12-2.25,9.34-3.57,12.17-6.92,9.46-11.18,17.94-23.19,27.07-34.67,3.47-4.36,7.11-9.13,11.76-11.81,2.9-1.67,8.79-1.06,11.56,1,1.9,1.39,1.74,7.22.81,10.61-2.8,10.13-6.54,20-9.66,30-.86,2.79-.85,5.85-1.44,10.37,3.11-1.92,5-2.75,6.5-4.06,15.44-13.54,28.56-28.4,33.9-49.26,3.24-12.68,9.07-24.7,14.05-37.82-18.38-.39-36.43,5-54.22-3.17,4.88-1.13,9.71-2.86,14.65-3.25q18.06-1.43,36.21-1.74c5.2-.09,7.82-2,10.26-6.65,8.24-15.87,16.84-31.57,26-46.93,5-8.42,13.52-10.94,22.87-8.52,6.55,1.69,7.86,4.66,4.29,10.43-7.9,12.82-16,25.52-23.85,38.36-2.17,3.54-3.87,7.37-5.93,11.35h34.84c0,5.13-3.51,7.19-7.66,7.57-8.38.78-16.82,1.08-25.25,1.26-4.06.09-7.42.51-9.08,5-10,27-20.59,53.81-30.11,81-4.66,13.33-7.64,27.26-11,41-.82,3.41-.12,7.19-.12,12.53,3.56-1.92,6.06-2.5,7.32-4.07,20.6-25.6,41.29-51.13,61.4-77.11,7.18-9.27,12.4-20,19.39-29.48a24.34,24.34,0,0,1,21-10.06c7.42.22,14.38,2.07,18.23,8.91s2.05,14-2,20.15C442,272.78,431.25,282.72,417,288c-5.12,1.91-7.55,4.21-8,9.82-.69,8.45-3,16.78-3.52,25.22-.5,7.88,3.74,10.62,10,6.07,9.32-6.74,18.49-14.14,26.12-22.68,9.57-10.72,17.38-23,26.32-34.31,1.49-1.9,4.84-2.32,7.33-3.43-.37,2.67.17,6-1.26,7.91-13.19,17.33-26.68,34.44-40.21,51.51a56.32,56.32,0,0,1-7.14,6.92c-9.71,8.62-17.21,9.8-27,4.37-10.74-6-16.37-16.46-14.76-27.54.8-5.5,1.6-11,2.63-18.1-10.77,14.72-20.33,28.13-30.29,41.26-7,9.24-14.36,18.23-21.9,27.06-4.4,5.15-9.59,9.51-17.23,6.37-7.86-3.21-13.77-8.87-13.3-17.49.67-12.17,2.91-24.27,4.78-36.35.93-6,2.55-11.92,2.74-18.54-3.53,3.62-6.84,7.5-10.66,10.79A75.46,75.46,0,0,1,289.13,316c-5.56,3.07-11.53,2.86-16.68-1.23s-6.47-9.73-5.27-16C268,294.4,269.19,290.11,270.69,283.81ZM223.84,139.15l-2.6-1.53c-3.37,3.8-7.52,7.14-10,11.46-16.83,29.48-26.61,61.76-36.5,94,18.72-29.13,38-57.94,47.8-91.68C223.69,147.53,223.45,143.24,223.84,139.15Zm189.9,138.2,2.95,2.57c6.06-5.5,12.19-10.92,18.16-16.51a20.58,20.58,0,0,0,6.46-18c-.22-2.09-1.79-4-2.74-6-1.72,1-4.18,1.58-5.06,3.09C426.75,254,420.29,265.71,413.74,277.35ZM331,295l1.86.47,13.32-37.24-1.69-.59Q337.75,276.34,331,295Zm55.5,19.88,2.17.4q2.31-11.74,4.64-23.48l-2.47-.46Q388.69,303.14,386.51,314.9Z"/><path d="M51.74,269.2c-3.49-1.43-6.58-2.19-9-3.88-1.71-1.18-3.63-3.74-3.46-5.5s2.89-3.11,4.51-4.64a1.05,1.05,0,0,1,.67-.21c12.07.53,15.51-7.64,18.47-17.27,2.26-7.4,6.38-14.21,9.18-21.46,4-10.46,7.63-21.1,11.57-32.08-6.18-1-11.29-1.42-16.22-2.61-4.41-1.07-8-3.67-7.27-9s4.73-6.59,9.37-6.73c2.61-.07,5.21-.17,7.82-.27,8.07-.31,15.06-1.25,16.88-11.67,1-5.88,6.29-7.1,10.9-3.23,3.32,2.8,5.69,6.73,9.5,11.4L188.92,154c-2.67,2.2-4.46,3.9-6.47,5.29-16.51,11.48-35.51,15.94-54.88,19.31-2.56.45-5.22,1.37-7.71,1.06-11.69-1.47-14.94,5.55-17.74,15.18-4.47,15.37-10.44,30.3-15.75,45.42-.68,1.93-1.2,3.9-1.85,6h51.94c-2.93,2-4.72,4-6.87,4.55-15.08,3.66-30.29,6.84-45.33,10.65-2.48.63-5.52,3.18-6.34,5.53C71.25,286.33,65,305.77,58.69,325.18c-2.47,7.63-4.36,15.46-7.24,22.92-3.51,9.09-6.18,10.41-12.74,8-10.23-3.72-16.09-11.35-13.36-18.65,8-21.43,16.41-42.69,24.67-64C50.53,272.16,51.07,270.86,51.74,269.2Z"/></svg>