<svg xmlns="http://www.w3.org/2000/svg" width="60" height="60" viewBox="0 0 60 60">
  <g id="_2" data-name="2" transform="translate(-92 -986)">
    <rect id="Rectangle_1763" data-name="Rectangle 1763" width="60" height="60" transform="translate(92 986)" fill="none"/>
    <g id="_2-2" data-name="2" transform="translate(68.912 958.881)">
      <path id="Path_1948" data-name="Path 1948" d="M55.781,332.494a55.049,55.049,0,0,1-12.6-1.864,18.658,18.658,0,0,0-4.317-.726,3.9,3.9,0,0,0-2.615.776c-.275.213-.563.4-.851.6-1.677,1.226-1.9,1.251-3.679.1a13.859,13.859,0,0,1-4.767-5.881,17.236,17.236,0,0,1-1.9-8.158c.063-1.752.275-2.052,1.914-2.527a80.023,80.023,0,0,0,8.245-2.99A28.673,28.673,0,0,1,45.784,309.7a11.847,11.847,0,0,1,4.98.938,13,13,0,0,0,8.421.751,11.587,11.587,0,0,1,3.716-.275,4.81,4.81,0,0,1,4.667,4.667c.063.776.275.788.913.538a50.233,50.233,0,0,1,8.6-3.166c2.252-.475,4.292-.188,5.843,1.739a3.853,3.853,0,0,1,.238,4.6,7.139,7.139,0,0,1-2.678,2.352c-6.194,3.378-12.45,6.631-18.906,9.484A13.3,13.3,0,0,1,55.781,332.494Zm.7-2.427a11.432,11.432,0,0,0,4.68-1.151c6.168-2.778,12.162-5.906,18.105-9.134a5.36,5.36,0,0,0,1.839-1.514,1.364,1.364,0,0,0,0-1.764,2.689,2.689,0,0,0-2.753-1.064,15.215,15.215,0,0,0-3.841,1.051c-3,1.239-5.981,2.527-9,3.754-2.477,1.013-4.842,2.377-7.595,2.578a21.167,21.167,0,0,1-5.543-.538,1.081,1.081,0,0,1-.9-1.314,1.151,1.151,0,0,1,1.214-1.039,4.1,4.1,0,0,1,.951.1,12.783,12.783,0,0,0,9.4-1.414,5.436,5.436,0,0,0,1.476-1.089,2.355,2.355,0,0,0-1.189-3.916,6.593,6.593,0,0,0-3.241.1,15.511,15.511,0,0,1-10.373-.876,8.742,8.742,0,0,0-3.5-.676,25.752,25.752,0,0,0-10.648,2.127,56.413,56.413,0,0,1-7.044,2.565c-.8.225-1.1.6-.988,1.4.088.6.063,1.226.188,1.827a15.065,15.065,0,0,0,4.767,8.821c.926.813,1.013.8,1.977.05a6.631,6.631,0,0,1,4.992-1.489,27.947,27.947,0,0,1,4.392.813A49.91,49.91,0,0,0,56.481,330.067Z" transform="translate(-1.712 -246.346)"/>
      <path id="Path_1949" data-name="Path 1949" d="M28.957,59.347a24.773,24.773,0,0,1-.513-6.356,25.105,25.105,0,0,1,6.043-15.64A24.725,24.725,0,0,1,51.2,28.3c9.459-1.026,17.329,2.215,23.385,9.584a24.937,24.937,0,0,1,5.593,14.264,26.07,26.07,0,0,1-1.652,11.2c-.313.851-.9,1.164-1.589.951a1.2,1.2,0,0,1-.726-1.677A24.926,24.926,0,0,0,77.53,57.7c1.176-9.034-1.727-16.478-8.809-22.2A22.561,22.561,0,0,0,52.68,30.582,23.5,23.5,0,0,0,31.072,50.689a23.139,23.139,0,0,0,.15,7.545c.038.188-.05.488.25.513.213.025.288-.213.388-.363.713-.988,1.414-2,2.14-2.99.6-.813,1.264-.988,1.889-.513.6.45.651,1.126.1,1.9-1.4,1.977-2.8,3.954-4.229,5.918a1.224,1.224,0,0,1-1.927.35c-2.052-1.439-4.079-2.89-6.106-4.367a1.173,1.173,0,0,1-.413-1.727,1.226,1.226,0,0,1,1.827-.238c1.126.763,2.215,1.577,3.328,2.352A2.026,2.026,0,0,0,28.957,59.347Z"/>
      <path id="Path_1950" data-name="Path 1950" d="M191.651,95.6A13.626,13.626,0,1,1,178.026,82,13.605,13.605,0,0,1,191.651,95.6Zm-2.465,0a11.161,11.161,0,1,0-11.111,11.223A11.2,11.2,0,0,0,189.186,95.6Z" transform="translate(-123.631 -47.139)"/>
      <path id="Path_1951" data-name="Path 1951" d="M246.984,121.41a1.181,1.181,0,0,1-1.839.988,3.574,3.574,0,0,0-2.765-.388,1.354,1.354,0,0,0-1.1,1.126c-.075.6.375.913.851,1.126,1.039.475,2.115.876,3.141,1.376a3.407,3.407,0,0,1,2.165,3.266,3.784,3.784,0,0,1-2.352,3.591c-.513.225-.776.5-.713,1.076a2.2,2.2,0,0,1-.05.638c-.125.826-.613,1.276-1.3,1.214a1.14,1.14,0,0,1-1.064-1.339c.05-.813-.175-1.239-1.039-1.326a3.279,3.279,0,0,1-1.451-.638,1.2,1.2,0,1,1,1.189-2.09,4.016,4.016,0,0,0,3.078.375,1.516,1.516,0,0,0,1.226-1.4c.075-.713-.425-1.039-.976-1.3a33.613,33.613,0,0,1-3.491-1.552,3.55,3.55,0,0,1,.826-6.356.778.778,0,0,0,.626-.938,4.282,4.282,0,0,1,.013-.8,1.112,1.112,0,0,1,1.089-1.076c.638-.038,1.214.3,1.2.913-.05,1.339.663,1.9,1.8,2.252A1.313,1.313,0,0,1,246.984,121.41Z" transform="translate(-188.71 -77.74)"/>
    </g>
  </g>
</svg>
